<svg width="37" height="41" viewBox="0 0 37 41" fill="none" xmlns="http://www.w3.org/2000/svg">
<path d="M37 6.1C37 4.99543 36.1046 4.1 35 4.1H25.6983C24.8569 4.1 24.1308 3.55424 23.6754 2.84675C22.577 1.14042 20.6746 0 18.5 0C16.3254 0 14.423 1.14042 13.3246 2.84675C12.8692 3.55424 12.1431 4.1 11.3017 4.1H2C0.89543 4.1 0 4.99543 0 6.1V39C0 40.1046 0.89543 41 2 41H35C36.1046 41 37 40.1046 37 39V6.1ZM18.5 4.1C19.6306 4.1 20.5556 5.0225 20.5556 6.15C20.5556 7.2775 19.6306 8.2 18.5 8.2C17.3694 8.2 16.4444 7.2775 16.4444 6.15C16.4444 5.0225 17.3694 4.1 18.5 4.1ZM22.6111 30.8C22.6111 31.9046 21.7157 32.8 20.6111 32.8H10.2222C9.11765 32.8 8.22222 31.9046 8.22222 30.8V30.7C8.22222 29.5954 9.11765 28.7 10.2222 28.7H20.6111C21.7157 28.7 22.6111 29.5954 22.6111 30.7V30.8ZM28.7778 22.6C28.7778 23.7046 27.8823 24.6 26.7778 24.6H10.2222C9.11765 24.6 8.22222 23.7046 8.22222 22.6V22.5C8.22222 21.3954 9.11765 20.5 10.2222 20.5H26.7778C27.8823 20.5 28.7778 21.3954 28.7778 22.5V22.6ZM28.7778 14.4C28.7778 15.5046 27.8823 16.4 26.7778 16.4H10.2222C9.11765 16.4 8.22222 15.5046 8.22222 14.4V14.3C8.22222 13.1954 9.11765 12.3 10.2222 12.3H26.7778C27.8823 12.3 28.7778 13.1954 28.7778 14.3V14.4Z" fill="url(#paint0_linear_3062_55)"/>
<defs>
<linearGradient id="paint0_linear_3062_55" x1="18.5" y1="0" x2="18.5" y2="41" gradientUnits="userSpaceOnUse">
<stop stop-color="#4F56FD"/>
<stop offset="1" stop-color="#FE8BF2"/>
</linearGradient>
</defs>
</svg>
