<svg width="52" height="52" viewBox="0 0 42 42" fill="none" xmlns="http://www.w3.org/2000/svg">
<path d="M21 42C9.38651 42 0 32.6165 0 21C0 9.38643 9.38355 0 21 0C32.6136 0 42 9.38347 42 21C42 32.6135 32.6165 42 21 42Z" fill="url(#paint0_linear_3062_45)"/>
<path d="M13.6172 30.8437V11.1562C13.6172 10.7024 13.867 10.2855 14.267 10.0714C14.6671 9.85727 15.1526 9.88073 15.5302 10.1324L30.2958 19.9761C30.6381 20.2044 30.8438 20.5885 30.8438 21C30.8438 21.4114 30.6382 21.7956 30.2958 22.0238L15.5302 31.8676C14.7217 32.4066 13.6172 31.8341 13.6172 30.8437Z" fill="url(#paint1_linear_3062_45)"/>
<defs>
<linearGradient id="paint0_linear_3062_45" x1="21" y1="42" x2="21" y2="0" gradientUnits="userSpaceOnUse">
<stop stop-color="#FD3A84"/>
<stop offset="1" stop-color="#FFA68D"/>
</linearGradient>
<linearGradient id="paint1_linear_3062_45" x1="22.2305" y1="32.0748" x2="22.2305" y2="9.92576" gradientUnits="userSpaceOnUse">
<stop stop-color="#FFC2CC"/>
<stop offset="1" stop-color="#FFF2F4"/>
</linearGradient>
</defs>
</svg>
