<svg width="49" height="44" viewBox="0 0 49 44" fill="none" xmlns="http://www.w3.org/2000/svg">
<path d="M48.9325 25.9585C48.1622 15.3986 36.9625 8.3099 27.038 11.823C23.4266 13.0392 20.3456 15.4528 18.3117 18.659C16.2778 21.8652 15.4147 25.669 15.8671 29.4327C16.3195 33.1964 18.0599 36.691 20.7965 39.3306C23.533 41.9702 27.0993 43.5942 30.8973 43.9303C31.0085 43.9751 31.1273 43.9988 31.2473 44H43.3408C43.6282 43.9967 43.9084 43.9095 44.1464 43.7494C44.3845 43.5892 44.57 43.3631 44.68 43.0991C44.7899 42.835 44.8195 42.5447 44.765 42.2642C44.7104 41.9836 44.5743 41.7251 44.3733 41.5208L42.9995 40.1812C45.0723 38.4646 46.6951 36.2737 47.7285 33.7964C48.7619 31.3191 49.175 28.6295 48.9325 25.9585ZM32.3761 37.0409C32.147 37.0363 31.9289 36.9427 31.7685 36.78C31.6082 36.6174 31.5183 36.3987 31.5184 36.171C31.5184 35.9432 31.6082 35.7246 31.7686 35.5619C31.9289 35.3993 32.1471 35.3057 32.3761 35.3011C32.6052 35.3057 32.8233 35.3993 32.9837 35.562C33.144 35.7246 33.2339 35.9433 33.2338 36.171C33.2338 36.3988 33.144 36.6174 32.9836 36.7801C32.8233 36.9427 32.6051 37.0363 32.3761 37.0409ZM34.065 28.9335C33.821 29.0278 33.6121 29.1944 33.4666 29.4107C33.321 29.627 33.2458 29.8825 33.2512 30.1427V32.6914C33.2476 32.9198 33.1539 33.1376 32.9901 33.2979C32.8264 33.4581 32.6059 33.5479 32.3761 33.5479C32.1463 33.5479 31.9258 33.4581 31.7621 33.2979C31.5983 33.1376 31.5046 32.9198 31.501 32.6914V30.1427C31.4922 29.5195 31.6798 28.9093 32.0377 28.3975C32.3955 27.8858 32.9055 27.4983 33.4962 27.2894C38.5798 25.2072 34.6367 18.1016 30.1533 21.3046C29.7535 21.6307 29.4315 22.041 29.2106 22.5058C28.9896 22.9706 28.8753 23.4784 28.8757 23.9925C28.8731 24.2215 28.7798 24.4403 28.6159 24.6013C28.4521 24.7623 28.231 24.8526 28.0007 24.8526C27.7703 24.8526 27.5492 24.7623 27.3854 24.6013C27.2216 24.4403 27.1282 24.2215 27.1256 23.9925C27.1313 23.2212 27.3079 22.4606 27.6429 21.7648C27.9778 21.069 28.4629 20.4551 29.0636 19.9668C29.6643 19.4785 30.3658 19.1277 31.1183 18.9395C31.8708 18.7513 32.6558 18.7302 33.4174 18.8777C38.633 19.8937 39.096 27.2778 34.065 28.9335ZM14.8746 33.0394H5.66008C5.37299 33.0354 5.09336 32.948 4.85554 32.7881C4.61773 32.6282 4.4321 32.4027 4.32147 32.1393C4.21084 31.8759 4.18004 31.5862 4.23285 31.3056C4.28565 31.0251 4.41977 30.766 4.61871 30.5602L5.99255 29.2119C3.92109 27.4966 2.29969 25.3069 1.26776 22.831C0.235831 20.3551 -0.175747 17.6671 0.068414 14.9981C1.27135 0.845696 19.2285 -5.17927 28.8058 5.28991C29.9075 6.46658 30.8303 7.79709 31.5447 9.23921C31.1335 9.2479 30.6959 9.274 30.2586 9.32635C19.4981 10.3921 11.7723 21.4358 14.5245 31.839C14.6239 32.2392 14.7464 32.6566 14.8746 33.0394Z" fill="url(#paint0_linear_3062_50)"/>
<defs>
<linearGradient id="paint0_linear_3062_50" x1="-0.00283891" y1="22.0003" x2="49.0043" y2="22.0003" gradientUnits="userSpaceOnUse">
<stop stop-color="#75CEBE"/>
<stop offset="1" stop-color="#11B8A1"/>
</linearGradient>
</defs>
</svg>
