<svg width="80" height="43" viewBox="0 0 90 53" fill="none" xmlns="http://www.w3.org/2000/svg">
<path fill-rule="evenodd" clip-rule="evenodd" d="M44.5636 1.3252C33.1056 1.3252 25.9309 6.98547 23.0396 18.306C27.3322 12.6481 32.3536 10.5257 38.1036 11.9391C41.3897 12.7454 43.7088 15.0878 46.2942 17.6596C50.4981 21.8857 55.4027 26.7721 66.0667 26.7721C77.5434 26.7721 84.718 21.1118 87.5907 9.79128C83.2887 15.4539 78.2674 17.5762 72.5267 16.1582C69.2476 15.3519 66.9215 13.0095 64.315 10.4169C60.1181 6.19076 55.2346 1.3252 44.5636 1.3252ZM23.0396 26.793C11.5629 26.793 4.38818 32.4532 1.5155 43.7738C5.82685 38.1158 10.8482 35.9935 16.5795 37.4068C19.8586 38.2131 22.1848 40.5556 24.7912 43.1552C28.9951 47.3743 33.8997 52.2677 44.5636 52.2677C56.0403 52.2677 63.215 46.6074 66.0877 35.2868C61.767 40.9448 56.7456 43.0625 51.0236 41.6399C47.7446 40.8336 45.4184 38.4912 42.812 35.8985C38.6081 31.6724 33.7035 26.7791 23.0396 26.7791V26.793Z" stroke="url(#paint0_linear_3237_11)" stroke-width="1.3" stroke-miterlimit="10"/>
<defs>
<linearGradient id="paint0_linear_3237_11" x1="18.4749" y1="-6.48295" x2="90.2349" y2="9.77879" gradientUnits="userSpaceOnUse">
<stop stop-color="#EAAAFF"/>
<stop offset="1" stop-color="#B5ACFF"/>
</linearGradient>
</defs>
</svg>
